<svg xmlns="http://www.w3.org/2000/svg" xmlns:xlink="http://www.w3.org/1999/xlink" contentStyleType="text/css" data-diagram-type="CLASS" height="549px" preserveAspectRatio="none" style="width:1135px;height:549px;background:#FFFFFF;" version="1.1" viewBox="0 0 1135 549" width="1135px" zoomAndPan="magnify"><?plantuml 1.2026.5?><defs/><g><g class="title" data-source-line="1"><text fill="#000000" font-family="sans-serif" font-size="14" font-weight="700" lengthAdjust="spacing" textLength="492.5635" x="317.8066" y="22.9951">Composer validation contexts: internal CV vs external holdout</text></g><!--class GPComposer--><g class="entity" data-qualified-name="GPComposer" data-source-line="7" id="ent0001"><rect fill="#F1F1F1" height="64.2969" rx="2.5" ry="2.5" style="stroke:#181818;stroke-width:0.5;" width="348.5059" x="7" y="160.4369"/><ellipse cx="131.8105" cy="176.4369" fill="#ADD1B2" rx="11" ry="11" style="stroke:#181818;stroke-width:1;"/><path d="M134.7793,182.0775 Q134.2012,182.3744 133.5605,182.515 Q132.9199,182.6713 132.2168,182.6713 Q129.7168,182.6713 128.3887,181.0306 Q127.0762,179.3744 127.0762,176.2494 Q127.0762,173.1244 128.3887,171.4681 Q129.7168,169.8119 132.2168,169.8119 Q132.9199,169.8119 133.5605,169.9681 Q134.2168,170.1244 134.7793,170.4213 L134.7793,173.14 Q134.1543,172.5619 133.5605,172.2963 Q132.9668,172.015 132.3418,172.015 Q130.998,172.015 130.3105,173.0931 Q129.623,174.1556 129.623,176.2494 Q129.623,178.3431 130.3105,179.4213 Q130.998,180.4838 132.3418,180.4838 Q132.9668,180.4838 133.5605,180.2181 Q134.1543,179.9369 134.7793,179.3588 L134.7793,182.0775 Z " fill="#000000"/><text fill="#000000" font-family="sans-serif" font-size="14" lengthAdjust="spacing" textLength="90.3848" x="152.3105" y="181.2836">GPComposer</text><line style="stroke:#181818;stroke-width:0.5;" x1="8" x2="354.5059" y1="192.4369" y2="192.4369"/><line style="stroke:#181818;stroke-width:0.5;" x1="8" x2="354.5059" y1="200.4369" y2="200.4369"/><g data-visibility-modifier="PUBLIC_METHOD"><ellipse cx="18" cy="214.0853" fill="#84BE84" rx="3" ry="3" style="stroke:#038048;stroke-width:1;"/></g><text fill="#000000" font-family="sans-serif" font-size="14" lengthAdjust="spacing" textLength="322.5059" x="27" y="217.432">compose_pipeline(data, data_source_context)</text></g><!--class PipelineObjectiveEvaluate--><g class="entity" data-qualified-name="PipelineObjectiveEvaluate" data-source-line="11" id="ent0002"><rect fill="#F1F1F1" height="64.2969" rx="2.5" ry="2.5" style="stroke:#181818;stroke-width:0.5;" width="214.6357" x="390.94" y="160.4369"/><ellipse cx="405.94" cy="176.4369" fill="#ADD1B2" rx="11" ry="11" style="stroke:#181818;stroke-width:1;"/><path d="M408.9088,182.0775 Q408.3306,182.3744 407.69,182.515 Q407.0494,182.6713 406.3463,182.6713 Q403.8463,182.6713 402.5181,181.0306 Q401.2056,179.3744 401.2056,176.2494 Q401.2056,173.1244 402.5181,171.4681 Q403.8463,169.8119 406.3463,169.8119 Q407.0494,169.8119 407.69,169.9681 Q408.3463,170.1244 408.9088,170.4213 L408.9088,173.14 Q408.2838,172.5619 407.69,172.2963 Q407.0963,172.015 406.4713,172.015 Q405.1275,172.015 404.44,173.0931 Q403.7525,174.1556 403.7525,176.2494 Q403.7525,178.3431 404.44,179.4213 Q405.1275,180.4838 406.4713,180.4838 Q407.0963,180.4838 407.69,180.2181 Q408.2838,179.9369 408.9088,179.3588 L408.9088,182.0775 Z " fill="#000000"/><text fill="#000000" font-family="sans-serif" font-size="14" lengthAdjust="spacing" textLength="182.6357" x="419.94" y="181.2836">PipelineObjectiveEvaluate</text><line style="stroke:#181818;stroke-width:0.5;" x1="391.94" x2="604.5757" y1="192.4369" y2="192.4369"/><line style="stroke:#181818;stroke-width:0.5;" x1="391.94" x2="604.5757" y1="200.4369" y2="200.4369"/><g data-visibility-modifier="PUBLIC_METHOD"><ellipse cx="401.94" cy="214.0853" fill="#84BE84" rx="3" ry="3" style="stroke:#038048;stroke-width:1;"/></g><text fill="#000000" font-family="sans-serif" font-size="14" lengthAdjust="spacing" textLength="127.3877" x="410.94" y="217.432">evaluate(pipeline)</text></g><!--class ComposerDataSourceContext--><g class="entity" data-qualified-name="ComposerDataSourceContext" data-source-line="15" id="ent0003"><rect fill="#F1F1F1" height="96.8906" rx="2.5" ry="2.5" style="stroke:#181818;stroke-width:0.5;" width="265.9277" x="365.29" y="294.8369"/><ellipse cx="391.9557" cy="310.8369" fill="#ADD1B2" rx="11" ry="11" style="stroke:#181818;stroke-width:1;"/><path d="M394.9245,316.4775 Q394.3463,316.7744 393.7057,316.915 Q393.0651,317.0713 392.362,317.0713 Q389.862,317.0713 388.5338,315.4306 Q387.2213,313.7744 387.2213,310.6494 Q387.2213,307.5244 388.5338,305.8681 Q389.862,304.2119 392.362,304.2119 Q393.0651,304.2119 393.7057,304.3681 Q394.362,304.5244 394.9245,304.8213 L394.9245,307.54 Q394.2995,306.9619 393.7057,306.6963 Q393.112,306.415 392.487,306.415 Q391.1432,306.415 390.4557,307.4931 Q389.7682,308.5556 389.7682,310.6494 Q389.7682,312.7431 390.4557,313.8213 Q391.1432,314.8838 392.487,314.8838 Q393.112,314.8838 393.7057,314.6181 Q394.2995,314.3369 394.9245,313.7588 L394.9245,316.4775 Z " fill="#000000"/><text fill="#000000" font-family="sans-serif" font-size="14" lengthAdjust="spacing" textLength="208.0039" x="408.5481" y="315.6836">ComposerDataSourceContext</text><line style="stroke:#181818;stroke-width:0.5;" x1="366.29" x2="630.2177" y1="326.8369" y2="326.8369"/><g data-visibility-modifier="PUBLIC_FIELD"><ellipse cx="376.29" cy="340.4853" fill="none" rx="3" ry="3" style="stroke:#038048;stroke-width:1;"/></g><text fill="#000000" font-family="sans-serif" font-size="14" lengthAdjust="spacing" textLength="239.9277" x="385.29" y="343.832">mode: ComposerDataSourceMode</text><g data-visibility-modifier="PUBLIC_FIELD"><ellipse cx="376.29" cy="356.7822" fill="none" rx="3" ry="3" style="stroke:#038048;stroke-width:1;"/></g><text fill="#000000" font-family="sans-serif" font-size="14" lengthAdjust="spacing" textLength="101.5684" x="385.29" y="360.1289">data_producer</text><g data-visibility-modifier="PUBLIC_FIELD"><ellipse cx="376.29" cy="373.0791" fill="none" rx="3" ry="3" style="stroke:#038048;stroke-width:1;"/></g><text fill="#000000" font-family="sans-serif" font-size="14" lengthAdjust="spacing" textLength="120.3672" x="385.29" y="376.4257">validation_blocks</text><line style="stroke:#181818;stroke-width:0.5;" x1="366.29" x2="630.2177" y1="383.7275" y2="383.7275"/></g><!--class ComposerDataSourceMode--><g class="entity" data-qualified-name="ComposerDataSourceMode" data-source-line="21" id="ent0004"><rect fill="#F1F1F1" height="80.5938" rx="2.5" ry="2.5" style="stroke:#181818;stroke-width:0.5;" width="223.0576" x="170.72" y="453.6869"/><ellipse cx="185.72" cy="469.6869" fill="#EB937F" rx="11" ry="11" style="stroke:#181818;stroke-width:1;"/><path d="M189.8294,475.6869 L182.1106,475.6869 L182.1106,463.2963 L189.8294,463.2963 L189.8294,465.4525 L184.5638,465.4525 L184.5638,468.1244 L189.3294,468.1244 L189.3294,470.2806 L184.5638,470.2806 L184.5638,473.5306 L189.8294,473.5306 L189.8294,475.6869 Z " fill="#000000"/><text fill="#000000" font-family="sans-serif" font-size="14" lengthAdjust="spacing" textLength="191.0576" x="199.72" y="474.5336">ComposerDataSourceMode</text><line style="stroke:#181818;stroke-width:0.5;" x1="171.72" x2="392.7776" y1="485.6869" y2="485.6869"/><text fill="#000000" font-family="sans-serif" font-size="14" lengthAdjust="spacing" textLength="90.4121" x="176.72" y="502.682">internal_split</text><text fill="#000000" font-family="sans-serif" font-size="14" lengthAdjust="spacing" textLength="118.2412" x="176.72" y="518.9789">external_holdout</text><line style="stroke:#181818;stroke-width:0.5;" x1="171.72" x2="392.7776" y1="526.2806" y2="526.2806"/></g><!--class DataSourceSplitter--><g class="entity" data-qualified-name="DataSourceSplitter" data-source-line="26" id="ent0005"><rect fill="#F1F1F1" height="80.5938" rx="2.5" ry="2.5" style="stroke:#181818;stroke-width:0.5;" width="384.0732" x="640.22" y="152.2969"/><ellipse cx="761.6468" cy="168.2969" fill="#ADD1B2" rx="11" ry="11" style="stroke:#181818;stroke-width:1;"/><path d="M764.6155,173.9375 Q764.0374,174.2344 763.3968,174.375 Q762.7561,174.5313 762.053,174.5313 Q759.553,174.5313 758.2249,172.8906 Q756.9124,171.2344 756.9124,168.1094 Q756.9124,164.9844 758.2249,163.3281 Q759.553,161.6719 762.053,161.6719 Q762.7561,161.6719 763.3968,161.8281 Q764.053,161.9844 764.6155,162.2813 L764.6155,165 Q763.9905,164.4219 763.3968,164.1563 Q762.803,163.875 762.178,163.875 Q760.8343,163.875 760.1468,164.9531 Q759.4593,166.0156 759.4593,168.1094 Q759.4593,170.2031 760.1468,171.2813 Q760.8343,172.3438 762.178,172.3438 Q762.803,172.3438 763.3968,172.0781 Q763.9905,171.7969 764.6155,171.2188 L764.6155,173.9375 Z " fill="#000000"/><text fill="#000000" font-family="sans-serif" font-size="14" lengthAdjust="spacing" textLength="132.7197" x="782.1468" y="173.1436">DataSourceSplitter</text><line style="stroke:#181818;stroke-width:0.5;" x1="641.22" x2="1023.2932" y1="184.2969" y2="184.2969"/><line style="stroke:#181818;stroke-width:0.5;" x1="641.22" x2="1023.2932" y1="192.2969" y2="192.2969"/><g data-visibility-modifier="PUBLIC_METHOD"><ellipse cx="651.22" cy="205.9453" fill="#84BE84" rx="3" ry="3" style="stroke:#038048;stroke-width:1;"/></g><text fill="#000000" font-family="sans-serif" font-size="14" lengthAdjust="spacing" textLength="76.8838" x="660.22" y="209.292">build(data)</text><g data-visibility-modifier="PUBLIC_METHOD"><ellipse cx="651.22" cy="222.2422" fill="#84BE84" rx="3" ry="3" style="stroke:#038048;stroke-width:1;"/></g><text fill="#000000" font-family="sans-serif" font-size="14" lengthAdjust="spacing" textLength="358.0732" x="660.22" y="225.5889">build_external_holdout(train_data, validation_data)</text></g><!--class RegularPath--><g class="entity" data-qualified-name="RegularPath" data-source-line="31" id="ent0006"><rect fill="#F1F1F1" height="48" rx="2.5" ry="2.5" style="stroke:#181818;stroke-width:0.5;" width="143.1592" x="651.67" y="44.2969"/><ellipse cx="666.67" cy="60.2969" fill="#ADD1B2" rx="11" ry="11" style="stroke:#181818;stroke-width:1;"/><path d="M669.6388,65.9375 Q669.0606,66.2344 668.42,66.375 Q667.7794,66.5313 667.0763,66.5313 Q664.5763,66.5313 663.2481,64.8906 Q661.9356,63.2344 661.9356,60.1094 Q661.9356,56.9844 663.2481,55.3281 Q664.5763,53.6719 667.0763,53.6719 Q667.7794,53.6719 668.42,53.8281 Q669.0763,53.9844 669.6388,54.2813 L669.6388,57 Q669.0138,56.4219 668.42,56.1563 Q667.8263,55.875 667.2013,55.875 Q665.8575,55.875 665.17,56.9531 Q664.4825,58.0156 664.4825,60.1094 Q664.4825,62.2031 665.17,63.2813 Q665.8575,64.3438 667.2013,64.3438 Q667.8263,64.3438 668.42,64.0781 Q669.0138,63.7969 669.6388,63.2188 L669.6388,65.9375 Z " fill="#000000"/><text fill="#000000" font-family="sans-serif" font-size="14" lengthAdjust="spacing" textLength="111.1592" x="680.67" y="65.1436">Regular AutoML</text><line style="stroke:#181818;stroke-width:0.5;" x1="652.67" x2="793.8292" y1="76.2969" y2="76.2969"/><line style="stroke:#181818;stroke-width:0.5;" x1="652.67" x2="793.8292" y1="84.2969" y2="84.2969"/></g><!--class EnsemblePath--><g class="entity" data-qualified-name="EnsemblePath" data-source-line="32" id="ent0007"><rect fill="#F1F1F1" height="48" rx="2.5" ry="2.5" style="stroke:#181818;stroke-width:0.5;" width="223.707" x="829.4" y="44.2969"/><ellipse cx="844.4" cy="60.2969" fill="#ADD1B2" rx="11" ry="11" style="stroke:#181818;stroke-width:1;"/><path d="M847.3688,65.9375 Q846.7906,66.2344 846.15,66.375 Q845.5094,66.5313 844.8063,66.5313 Q842.3063,66.5313 840.9781,64.8906 Q839.6656,63.2344 839.6656,60.1094 Q839.6656,56.9844 840.9781,55.3281 Q842.3063,53.6719 844.8063,53.6719 Q845.5094,53.6719 846.15,53.8281 Q846.8063,53.9844 847.3688,54.2813 L847.3688,57 Q846.7438,56.4219 846.15,56.1563 Q845.5563,55.875 844.9313,55.875 Q843.5875,55.875 842.9,56.9531 Q842.2125,58.0156 842.2125,60.1094 Q842.2125,62.2031 842.9,63.2813 Q843.5875,64.3438 844.9313,64.3438 Q845.5563,64.3438 846.15,64.0781 Q846.7438,63.7969 847.3688,63.2188 L847.3688,65.9375 Z " fill="#000000"/><text fill="#000000" font-family="sans-serif" font-size="14" lengthAdjust="spacing" textLength="191.707" x="858.4" y="65.1436">Chunked ensemble AutoML</text><line style="stroke:#181818;stroke-width:0.5;" x1="830.4" x2="1052.107" y1="76.2969" y2="76.2969"/><line style="stroke:#181818;stroke-width:0.5;" x1="830.4" x2="1052.107" y1="84.2969" y2="84.2969"/></g><!--class TrainData--><g class="entity" data-qualified-name="TrainData" data-source-line="33" id="ent0008"><rect fill="#F1F1F1" height="48" rx="2.5" ry="2.5" style="stroke:#181818;stroke-width:0.5;" width="138.7158" x="428.89" y="469.9769"/><ellipse cx="443.89" cy="485.9769" fill="#ADD1B2" rx="11" ry="11" style="stroke:#181818;stroke-width:1;"/><path d="M446.8588,491.6175 Q446.2806,491.9144 445.64,492.055 Q444.9994,492.2113 444.2963,492.2113 Q441.7963,492.2113 440.4681,490.5706 Q439.1556,488.9144 439.1556,485.7894 Q439.1556,482.6644 440.4681,481.0081 Q441.7963,479.3519 444.2963,479.3519 Q444.9994,479.3519 445.64,479.5081 Q446.2963,479.6644 446.8588,479.9613 L446.8588,482.68 Q446.2338,482.1019 445.64,481.8363 Q445.0463,481.555 444.4213,481.555 Q443.0775,481.555 442.39,482.6331 Q441.7025,483.6956 441.7025,485.7894 Q441.7025,487.8831 442.39,488.9613 Q443.0775,490.0238 444.4213,490.0238 Q445.0463,490.0238 445.64,489.7581 Q446.2338,489.4769 446.8588,488.8988 L446.8588,491.6175 Z " fill="#000000"/><text fill="#000000" font-family="sans-serif" font-size="14" lengthAdjust="spacing" textLength="106.7158" x="457.89" y="490.8236">InputData train</text><line style="stroke:#181818;stroke-width:0.5;" x1="429.89" x2="566.6058" y1="501.9769" y2="501.9769"/><line style="stroke:#181818;stroke-width:0.5;" x1="429.89" x2="566.6058" y1="509.9769" y2="509.9769"/></g><!--class ValidationData--><g class="entity" data-qualified-name="ValidationData" data-source-line="34" id="ent0009"><rect fill="#F1F1F1" height="48" rx="2.5" ry="2.5" style="stroke:#181818;stroke-width:0.5;" width="240.4824" x="603.01" y="469.9769"/><ellipse cx="618.01" cy="485.9769" fill="#ADD1B2" rx="11" ry="11" style="stroke:#181818;stroke-width:1;"/><path d="M620.9788,491.6175 Q620.4006,491.9144 619.76,492.055 Q619.1194,492.2113 618.4163,492.2113 Q615.9163,492.2113 614.5881,490.5706 Q613.2756,488.9144 613.2756,485.7894 Q613.2756,482.6644 614.5881,481.0081 Q615.9163,479.3519 618.4163,479.3519 Q619.1194,479.3519 619.76,479.5081 Q620.4163,479.6644 620.9788,479.9613 L620.9788,482.68 Q620.3538,482.1019 619.76,481.8363 Q619.1663,481.555 618.5413,481.555 Q617.1975,481.555 616.51,482.6331 Q615.8225,483.6956 615.8225,485.7894 Q615.8225,487.8831 616.51,488.9613 Q617.1975,490.0238 618.5413,490.0238 Q619.1663,490.0238 619.76,489.7581 Q620.3538,489.4769 620.9788,488.8988 L620.9788,491.6175 Z " fill="#000000"/><text fill="#000000" font-family="sans-serif" font-size="14" lengthAdjust="spacing" textLength="208.4824" x="632.01" y="490.8236">InputData common validation</text><line style="stroke:#181818;stroke-width:0.5;" x1="604.01" x2="842.4924" y1="501.9769" y2="501.9769"/><line style="stroke:#181818;stroke-width:0.5;" x1="604.01" x2="842.4924" y1="509.9769" y2="509.9769"/></g><g class="entity" data-qualified-name="GMN18" data-source-line="48" id="ent0019"><path d="M666.33,292.8869 L666.33,340.2769 L631.71,344.2769 L666.33,348.2769 L666.33,393.6838 A0,0 0 0 0 666.33,393.6838 L1120.1767,393.6838 A0,0 0 0 0 1120.1767,393.6838 L1120.1767,302.8869 L1110.1767,292.8869 L666.33,292.8869 A0,0 0 0 0 666.33,292.8869" fill="#FEFFDD" style="stroke:#181818;stroke-width:0.5;"/><path d="M1110.1767,292.8869 L1110.1767,302.8869 L1120.1767,302.8869 L1110.1767,292.8869" fill="#FEFFDD" style="stroke:#181818;stroke-width:0.5;"/><text fill="#000000" font-family="sans-serif" font-size="13" lengthAdjust="spacing" textLength="47.1694" x="672.33" y="309.9538">Before:</text><text fill="#000000" font-family="sans-serif" font-size="13" lengthAdjust="spacing" textLength="432.8467" x="672.33" y="325.0866">composer validation was effectively tied to requirements/cv_folds.</text><text fill="#000000" font-family="sans-serif" font-size="13" lengthAdjust="spacing" textLength="4.1323" x="672.33" y="340.2194">&#160;</text><text fill="#000000" font-family="sans-serif" font-size="13" lengthAdjust="spacing" textLength="32.6904" x="672.33" y="355.3522">Now:</text><text fill="#000000" font-family="sans-serif" font-size="13" lengthAdjust="spacing" textLength="403.9585" x="672.33" y="370.485">runtime validation data lives in ComposerDataSourceContext.</text><text fill="#000000" font-family="sans-serif" font-size="13" lengthAdjust="spacing" textLength="374.3086" x="672.33" y="385.6178">Chunked ensembles use a shared external validation set.</text></g><!--link RegularPath to DataSourceSplitter--><g class="link" data-entity-1="ent0006" data-entity-2="ent0005" data-link-type="dependency" data-source-line="36" id="lnk10"><path codeLine="36" d="M723.25,92.5569 C723.25,109.5069 723.25,127.5469 723.25,147.2469" fill="none" id="RegularPath-to-DataSourceSplitter" style="stroke:#181818;stroke-width:1;"/><polygon fill="#181818" points="723.25,152.2469,727.25,143.2469,723.25,147.2469,719.25,143.2469,723.25,152.2469" style="stroke:#181818;stroke-width:1;stroke-linejoin:miter;stroke-miterlimit:10;"/><text fill="#000000" font-family="sans-serif" font-size="13" lengthAdjust="spacing" textLength="400.8228" x="322.25" y="118.4638">build_internal_composer_data_source_context(data, cv_folds)</text></g><!--link EnsemblePath to DataSourceSplitter--><g class="link" data-entity-1="ent0007" data-entity-2="ent0005" data-link-type="dependency" data-source-line="37" id="lnk11"><path codeLine="37" d="M926.84,92.5569 C926.84,109.5069 926.84,127.5469 926.84,147.2469" fill="none" id="EnsemblePath-to-DataSourceSplitter" style="stroke:#181818;stroke-width:1;"/><polygon fill="#181818" points="926.84,152.2469,930.84,143.2469,926.84,147.2469,922.84,143.2469,926.84,152.2469" style="stroke:#181818;stroke-width:1;stroke-linejoin:miter;stroke-miterlimit:10;"/><text fill="#000000" font-family="sans-serif" font-size="13" lengthAdjust="spacing" textLength="482.1172" x="443.84" y="135.4638">build_external_holdout_composer_data_source_context(chunk, validation)</text></g><!--link DataSourceSplitter to ComposerDataSourceContext--><g class="link" data-entity-1="ent0005" data-entity-2="ent0003" data-link-type="dependency" data-source-line="39" id="lnk12"><path codeLine="39" d="M640.08,229.2769 C626.72,229.2769 618.39,229.2769 618.39,229.2769 C618.39,229.2769 618.39,258.6169 618.39,289.6069" fill="none" id="DataSourceSplitter-to-ComposerDataSourceContext" style="stroke:#181818;stroke-width:1;"/><polygon fill="#181818" points="618.39,294.6069,622.39,285.6069,618.39,289.6069,614.39,285.6069,618.39,294.6069" style="stroke:#181818;stroke-width:1;stroke-linejoin:miter;stroke-miterlimit:10;"/></g><!--link ComposerDataSourceContext to ComposerDataSourceMode--><g class="link" data-entity-1="ent0003" data-entity-2="ent0004" data-link-type="dependency" data-source-line="40" id="lnk13"><path codeLine="40" d="M379.54,392.2069 C379.54,411.9769 379.54,429.5269 379.54,448.3569" fill="none" id="ComposerDataSourceContext-to-ComposerDataSourceMode" style="stroke:#181818;stroke-width:1;"/><polygon fill="#181818" points="379.54,453.3569,383.54,444.3569,379.54,448.3569,375.54,444.3569,379.54,453.3569" style="stroke:#181818;stroke-width:1;stroke-linejoin:miter;stroke-miterlimit:10;"/></g><!--link GPComposer to ComposerDataSourceContext--><g class="link" data-entity-1="ent0001" data-entity-2="ent0003" data-link-type="dependency" data-source-line="41" id="lnk14"><path codeLine="41" d="M355.91,193.2769 C369.51,193.2769 378.11,193.2769 378.11,193.2769 C378.11,193.2769 378.11,245.7769 378.11,289.5769" fill="none" id="GPComposer-to-ComposerDataSourceContext" style="stroke:#181818;stroke-width:1;"/><polygon fill="#181818" points="378.11,294.5769,382.11,285.5769,378.11,289.5769,374.11,285.5769,378.11,294.5769" style="stroke:#181818;stroke-width:1;stroke-linejoin:miter;stroke-miterlimit:10;"/></g><!--link PipelineObjectiveEvaluate to ComposerDataSourceContext--><g class="link" data-entity-1="ent0002" data-entity-2="ent0003" data-link-type="dependency" data-source-line="42" id="lnk15"><path codeLine="42" d="M498.25,224.9169 C498.25,245.1569 498.25,266.6169 498.25,289.3869" fill="none" id="PipelineObjectiveEvaluate-to-ComposerDataSourceContext" style="stroke:#181818;stroke-width:1;"/><polygon fill="#181818" points="498.25,294.3869,502.25,285.3869,498.25,289.3869,494.25,285.3869,498.25,294.3869" style="stroke:#181818;stroke-width:1;stroke-linejoin:miter;stroke-miterlimit:10;"/><text fill="#000000" font-family="sans-serif" font-size="13" lengthAdjust="spacing" textLength="174.4082" x="323.25" y="255.7238">reads train/validation folds</text></g><!--link ComposerDataSourceContext to TrainData--><g class="link" data-entity-1="ent0003" data-entity-2="ent0008" data-link-type="dependency" data-source-line="44" id="lnk16"><path codeLine="44" d="M498.25,392.2069 C498.25,418.1669 498.25,443.9069 498.25,464.7569" fill="none" id="ComposerDataSourceContext-to-TrainData" style="stroke:#181818;stroke-width:1;"/><polygon fill="#181818" points="498.25,469.7569,502.25,460.7569,498.25,464.7569,494.25,460.7569,498.25,469.7569" style="stroke:#181818;stroke-width:1;stroke-linejoin:miter;stroke-miterlimit:10;"/></g><!--link ComposerDataSourceContext to ValidationData--><g class="link" data-entity-1="ent0003" data-entity-2="ent0009" data-link-type="dependency" data-source-line="45" id="lnk17"><path codeLine="45" d="M617.11,392.2069 C617.11,418.1669 617.11,443.9069 617.11,464.7569" fill="none" id="ComposerDataSourceContext-to-ValidationData" style="stroke:#181818;stroke-width:1;"/><polygon fill="#181818" points="617.11,469.7569,621.11,460.7569,617.11,464.7569,613.11,460.7569,617.11,469.7569" style="stroke:#181818;stroke-width:1;stroke-linejoin:miter;stroke-miterlimit:10;"/><text fill="#000000" font-family="sans-serif" font-size="13" lengthAdjust="spacing" textLength="141.4258" x="475.11" y="427.0538">external_holdout only</text></g><?plantuml-src XLJBRjim4BppAnOvsMYJt7qeqBf14I1fZRh8LQ2fbSMQ8bK-v1f5_xrBlSouadCHoDNkx70uN2-zGbYRgZOEBJHSoPnxQJG8ept-zcu5aXPMSmNh5sWSKB3RbaRb9dZ6t47gcbjUWIjvRevIxw7Woc7oHyGM6hNV-XDrj2WyrtkLfYYfqPzg16DzQHWJYZi7NpOZkpyCu9teTbajQumL2-BBtqFyPiu4Ap3hgI_Ptm5aqoT_s_sanhB11pffu1uxJEntYm4qAHswVwO6snP_tS5tfPN9SJMHz4pn-B_bLLkJ1u4s1iuIPpjbnC75LgX3DGFIjXck87Erafu2moLamoMCVC_LsvZh1zrsGQgy5MivRhDBc8MtNEgiapHXsfMDFMw-upueRk5ZyERvwGQuWpwquRuSijPbq0VC0RN3QaUtdgG_zB4q_r7NmKV-qD9eytx4LOpzdqHEgCYePvfjmSkuRQjOmWjkRpzCwRE2JerHvTvZDfjmLUytqMG5QUQMB3t9MnqkzRxUIKJzqdjOCZO17dlEkfJD-tUwhZLkykYkeyy_hAjr98X5dhlkek-JiTEAojvWVJR5zRpNNg2cb_g3qUh4c3P4sCfzIO7Yoca1Fc5XBAve9IPcvf7yXqNHAQ5Eu2MvtniwwwyWBLOq_jpzu9mxHYXVpJ62sQ2zh335YeQWaTYWezS_p-cEgY_VcOFW47YSnZQ6Xu6Te3kaIjGvnAF_0m00?></g></svg>