<svg xmlns="http://www.w3.org/2000/svg" xmlns:xlink="http://www.w3.org/1999/xlink" contentStyleType="text/css" data-diagram-type="CLASS" height="725px" preserveAspectRatio="none" style="width:1313px;height:725px;background:#FFFFFF;" version="1.1" viewBox="0 0 1313 725" width="1313px" zoomAndPan="magnify"><?plantuml 1.2026.5?><defs/><g><g class="title" data-source-line="1"><text fill="#000000" font-family="sans-serif" font-size="14" font-weight="700" lengthAdjust="spacing" textLength="425.1338" x="440.5459" y="22.9951">PipelineEnsemble: &#1088;&#1077;&#1078;&#1080;&#1084;&#1099; &#1072;&#1075;&#1088;&#1077;&#1075;&#1072;&#1094;&#1080;&#1080; &#1087;&#1088;&#1077;&#1076;&#1089;&#1082;&#1072;&#1079;&#1072;&#1085;&#1080;&#1081;</text></g><!--class PipelineEnsemble--><g class="entity" data-qualified-name="PipelineEnsemble" data-source-line="7" id="ent0001"><rect fill="#F1F1F1" height="194.6719" rx="2.5" ry="2.5" style="stroke:#181818;stroke-width:0.5;" width="335.1348" x="275.43" y="44.2969"/><ellipse cx="376.8719" cy="60.2969" fill="#ADD1B2" rx="11" ry="11" style="stroke:#181818;stroke-width:1;"/><path d="M379.8406,65.9375 Q379.2625,66.2344 378.6219,66.375 Q377.9813,66.5313 377.2781,66.5313 Q374.7781,66.5313 373.45,64.8906 Q372.1375,63.2344 372.1375,60.1094 Q372.1375,56.9844 373.45,55.3281 Q374.7781,53.6719 377.2781,53.6719 Q377.9813,53.6719 378.6219,53.8281 Q379.2781,53.9844 379.8406,54.2813 L379.8406,57 Q379.2156,56.4219 378.6219,56.1563 Q378.0281,55.875 377.4031,55.875 Q376.0594,55.875 375.3719,56.9531 Q374.6844,58.0156 374.6844,60.1094 Q374.6844,62.2031 375.3719,63.2813 Q376.0594,64.3438 377.4031,64.3438 Q378.0281,64.3438 378.6219,64.0781 Q379.2156,63.7969 379.8406,63.2188 L379.8406,65.9375 Z " fill="#000000"/><text fill="#000000" font-family="sans-serif" font-size="14" lengthAdjust="spacing" textLength="123.751" x="397.3719" y="65.1436">PipelineEnsemble</text><line style="stroke:#181818;stroke-width:0.5;" x1="276.43" x2="609.5648" y1="76.2969" y2="76.2969"/><line style="stroke:#181818;stroke-width:0.5;" x1="276.43" x2="609.5648" y1="84.2969" y2="84.2969"/><g data-visibility-modifier="PUBLIC_METHOD"><ellipse cx="286.43" cy="97.9453" fill="#84BE84" rx="3" ry="3" style="stroke:#038048;stroke-width:1;"/></g><text fill="#000000" font-family="sans-serif" font-size="14" lengthAdjust="spacing" textLength="236.4688" x="295.43" y="101.292">predict(input_data, output_mode)</text><g data-visibility-modifier="PUBLIC_METHOD"><ellipse cx="286.43" cy="114.2422" fill="#84BE84" rx="3" ry="3" style="stroke:#038048;stroke-width:1;"/></g><text fill="#000000" font-family="sans-serif" font-size="14" lengthAdjust="spacing" textLength="168.3965" x="295.43" y="117.5889">finalize(validation_data)</text><g data-visibility-modifier="PUBLIC_METHOD"><ellipse cx="286.43" cy="130.5391" fill="#84BE84" rx="3" ry="3" style="stroke:#038048;stroke-width:1;"/></g><text fill="#000000" font-family="sans-serif" font-size="14" lengthAdjust="spacing" textLength="309.1348" x="295.43" y="133.8857">select_best_models(validation_data, metric)</text><g data-visibility-modifier="PRIVATE_METHOD"><rect fill="#F24D5C" height="6" style="stroke:#C82930;stroke-width:1;" width="6" x="283.43" y="143.8359"/></g><text fill="#000000" font-family="sans-serif" font-size="14" lengthAdjust="spacing" textLength="155.9141" x="295.43" y="150.1826">_predict_ensemble(...)</text><g data-visibility-modifier="PRIVATE_METHOD"><rect fill="#F24D5C" height="6" style="stroke:#C82930;stroke-width:1;" width="6" x="283.43" y="160.1328"/></g><text fill="#000000" font-family="sans-serif" font-size="14" lengthAdjust="spacing" textLength="285.9609" x="295.43" y="166.4795">_aggregate_classification_predictions(...)</text><g data-visibility-modifier="PRIVATE_METHOD"><rect fill="#F24D5C" height="6" style="stroke:#C82930;stroke-width:1;" width="6" x="283.43" y="176.4297"/></g><text fill="#000000" font-family="sans-serif" font-size="14" lengthAdjust="spacing" textLength="246.5381" x="295.43" y="182.7764">_compute_aggregation_weights(...)</text><g data-visibility-modifier="PRIVATE_METHOD"><rect fill="#F24D5C" height="6" style="stroke:#C82930;stroke-width:1;" width="6" x="283.43" y="192.7266"/></g><text fill="#000000" font-family="sans-serif" font-size="14" lengthAdjust="spacing" textLength="205.126" x="295.43" y="199.0732">_compute_model_weights(...)</text><g data-visibility-modifier="PRIVATE_METHOD"><rect fill="#F24D5C" height="6" style="stroke:#C82930;stroke-width:1;" width="6" x="283.43" y="209.0234"/></g><text fill="#000000" font-family="sans-serif" font-size="14" lengthAdjust="spacing" textLength="252.2393" x="295.43" y="215.3701">_compute_base_routing_weights(...)</text><g data-visibility-modifier="PRIVATE_METHOD"><rect fill="#F24D5C" height="6" style="stroke:#C82930;stroke-width:1;" width="6" x="283.43" y="225.3203"/></g><text fill="#000000" font-family="sans-serif" font-size="14" lengthAdjust="spacing" textLength="201.9883" x="295.43" y="231.667">_compute_gated_weights(...)</text></g><!--class PipelineInfo--><g class="entity" data-qualified-name="PipelineInfo" data-source-line="19" id="ent0002"><rect fill="#F1F1F1" height="129.4844" rx="2.5" ry="2.5" style="stroke:#181818;stroke-width:0.5;" width="213.2979" x="38.35" y="298.9769"/><ellipse cx="99.9521" cy="314.9769" fill="#ADD1B2" rx="11" ry="11" style="stroke:#181818;stroke-width:1;"/><path d="M102.9208,320.6175 Q102.3427,320.9144 101.7021,321.055 Q101.0614,321.2113 100.3583,321.2113 Q97.8583,321.2113 96.5302,319.5706 Q95.2177,317.9144 95.2177,314.7894 Q95.2177,311.6644 96.5302,310.0081 Q97.8583,308.3519 100.3583,308.3519 Q101.0614,308.3519 101.7021,308.5081 Q102.3583,308.6644 102.9208,308.9613 L102.9208,311.68 Q102.2958,311.1019 101.7021,310.8363 Q101.1083,310.555 100.4833,310.555 Q99.1396,310.555 98.4521,311.6331 Q97.7646,312.6956 97.7646,314.7894 Q97.7646,316.8831 98.4521,317.9613 Q99.1396,319.0238 100.4833,319.0238 Q101.1083,319.0238 101.7021,318.7581 Q102.2958,318.4769 102.9208,317.8988 L102.9208,320.6175 Z " fill="#000000"/><text fill="#000000" font-family="sans-serif" font-size="14" lengthAdjust="spacing" textLength="81.5938" x="120.4521" y="319.8236">PipelineInfo</text><line style="stroke:#181818;stroke-width:0.5;" x1="39.35" x2="250.6479" y1="330.9769" y2="330.9769"/><g data-visibility-modifier="PUBLIC_FIELD"><ellipse cx="49.35" cy="344.6253" fill="none" rx="3" ry="3" style="stroke:#038048;stroke-width:1;"/></g><text fill="#000000" font-family="sans-serif" font-size="14" lengthAdjust="spacing" textLength="152.4414" x="58.35" y="347.972">name: partition name</text><g data-visibility-modifier="PUBLIC_FIELD"><ellipse cx="49.35" cy="360.9222" fill="none" rx="3" ry="3" style="stroke:#038048;stroke-width:1;"/></g><text fill="#000000" font-family="sans-serif" font-size="14" lengthAdjust="spacing" textLength="119.8066" x="58.35" y="364.2689">pipeline: Pipeline</text><g data-visibility-modifier="PUBLIC_FIELD"><ellipse cx="49.35" cy="377.2191" fill="none" rx="3" ry="3" style="stroke:#038048;stroke-width:1;"/></g><text fill="#000000" font-family="sans-serif" font-size="14" lengthAdjust="spacing" textLength="187.2979" x="58.35" y="380.5657">metrics: validation metrics</text><g data-visibility-modifier="PUBLIC_FIELD"><ellipse cx="49.35" cy="393.5159" fill="none" rx="3" ry="3" style="stroke:#038048;stroke-width:1;"/></g><text fill="#000000" font-family="sans-serif" font-size="14" lengthAdjust="spacing" textLength="105.5947" x="58.35" y="396.8626">val_predictions</text><g data-visibility-modifier="PUBLIC_FIELD"><ellipse cx="49.35" cy="409.8128" fill="none" rx="3" ry="3" style="stroke:#038048;stroke-width:1;"/></g><text fill="#000000" font-family="sans-serif" font-size="14" lengthAdjust="spacing" textLength="114.2695" x="58.35" y="413.1595">val_probabilities</text><line style="stroke:#181818;stroke-width:0.5;" x1="39.35" x2="250.6479" y1="420.4613" y2="420.4613"/></g><!--class SamplingRoutingContext--><g class="entity" data-qualified-name="SamplingRoutingContext" data-source-line="27" id="ent0003"><rect fill="#F1F1F1" height="96.8906" rx="2.5" ry="2.5" style="stroke:#181818;stroke-width:0.5;" width="311.79" x="287.1" y="315.2669"/><ellipse cx="351.2826" cy="331.2669" fill="#ADD1B2" rx="11" ry="11" style="stroke:#181818;stroke-width:1;"/><path d="M354.2514,336.9075 Q353.6732,337.2044 353.0326,337.345 Q352.392,337.5012 351.6889,337.5012 Q349.1889,337.5012 347.8607,335.8606 Q346.5482,334.2044 346.5482,331.0794 Q346.5482,327.9544 347.8607,326.2981 Q349.1889,324.6419 351.6889,324.6419 Q352.392,324.6419 353.0326,324.7981 Q353.6889,324.9544 354.2514,325.2512 L354.2514,327.97 Q353.6264,327.3919 353.0326,327.1262 Q352.4389,326.845 351.8139,326.845 Q350.4701,326.845 349.7826,327.9231 Q349.0951,328.9856 349.0951,331.0794 Q349.0951,333.1731 349.7826,334.2512 Q350.4701,335.3137 351.8139,335.3137 Q352.4389,335.3137 353.0326,335.0481 Q353.6264,334.7669 354.2514,334.1887 L354.2514,336.9075 Z " fill="#000000"/><text fill="#000000" font-family="sans-serif" font-size="14" lengthAdjust="spacing" textLength="174.9248" x="371.7826" y="336.1136">SamplingRoutingContext</text><line style="stroke:#181818;stroke-width:0.5;" x1="288.1" x2="597.89" y1="347.2669" y2="347.2669"/><g data-visibility-modifier="PUBLIC_FIELD"><ellipse cx="298.1" cy="360.9153" fill="none" rx="3" ry="3" style="stroke:#038048;stroke-width:1;"/></g><text fill="#000000" font-family="sans-serif" font-size="14" lengthAdjust="spacing" textLength="113.415" x="307.1" y="364.262">partition_names</text><line style="stroke:#181818;stroke-width:0.5;" x1="288.1" x2="597.89" y1="371.5637" y2="371.5637"/><g data-visibility-modifier="PUBLIC_METHOD"><ellipse cx="298.1" cy="385.2122" fill="#84BE84" rx="3" ry="3" style="stroke:#038048;stroke-width:1;"/></g><text fill="#000000" font-family="sans-serif" font-size="14" lengthAdjust="spacing" textLength="285.79" x="307.1" y="388.5589">base_weights(input_data, active_names)</text><g data-visibility-modifier="PUBLIC_METHOD"><ellipse cx="298.1" cy="401.5091" fill="#84BE84" rx="3" ry="3" style="stroke:#038048;stroke-width:1;"/></g><text fill="#000000" font-family="sans-serif" font-size="14" lengthAdjust="spacing" textLength="219.4951" x="307.1" y="404.8557">transform_features(input_data)</text></g><!--class ConstrainedGatingRouter--><g class="entity" data-qualified-name="ConstrainedGatingRouter" data-source-line="33" id="ent0004"><rect fill="#F1F1F1" height="80.5938" rx="2.5" ry="2.5" style="stroke:#181818;stroke-width:0.5;" width="351.083" x="633.46" y="323.4169"/><ellipse cx="715.6587" cy="339.4169" fill="#ADD1B2" rx="11" ry="11" style="stroke:#181818;stroke-width:1;"/><path d="M718.6275,345.0575 Q718.0494,345.3544 717.4087,345.495 Q716.7681,345.6513 716.065,345.6513 Q713.565,345.6513 712.2369,344.0106 Q710.9244,342.3544 710.9244,339.2294 Q710.9244,336.1044 712.2369,334.4481 Q713.565,332.7919 716.065,332.7919 Q716.7681,332.7919 717.4087,332.9481 Q718.065,333.1044 718.6275,333.4013 L718.6275,336.12 Q718.0025,335.5419 717.4087,335.2763 Q716.815,334.995 716.19,334.995 Q714.8462,334.995 714.1587,336.0731 Q713.4712,337.1356 713.4712,339.2294 Q713.4712,341.3231 714.1587,342.4013 Q714.8462,343.4638 716.19,343.4638 Q716.815,343.4638 717.4087,343.1981 Q718.0025,342.9169 718.6275,342.3388 L718.6275,345.0575 Z " fill="#000000"/><text fill="#000000" font-family="sans-serif" font-size="14" lengthAdjust="spacing" textLength="178.1855" x="736.1587" y="344.2636">ConstrainedGatingRouter</text><line style="stroke:#181818;stroke-width:0.5;" x1="634.46" x2="983.543" y1="355.4169" y2="355.4169"/><line style="stroke:#181818;stroke-width:0.5;" x1="634.46" x2="983.543" y1="363.4169" y2="363.4169"/><g data-visibility-modifier="PUBLIC_METHOD"><ellipse cx="644.46" cy="377.0653" fill="#84BE84" rx="3" ry="3" style="stroke:#038048;stroke-width:1;"/></g><text fill="#000000" font-family="sans-serif" font-size="14" lengthAdjust="spacing" textLength="325.083" x="653.46" y="380.412">fit(features, prior_weights, predictions, target)</text><g data-visibility-modifier="PUBLIC_METHOD"><ellipse cx="644.46" cy="393.3622" fill="#84BE84" rx="3" ry="3" style="stroke:#038048;stroke-width:1;"/></g><text fill="#000000" font-family="sans-serif" font-size="14" lengthAdjust="spacing" textLength="123.5664" x="653.46" y="396.7089">weights(features)</text></g><!--class ChunkPipeline--><g class="entity" data-qualified-name="ChunkPipeline" data-source-line="38" id="ent0005"><rect fill="#F1F1F1" height="80.5938" rx="2.5" ry="2.5" style="stroke:#181818;stroke-width:0.5;" width="262.4688" x="13.77" y="559.0869"/><ellipse cx="88.7295" cy="575.0869" fill="#ADD1B2" rx="11" ry="11" style="stroke:#181818;stroke-width:1;"/><path d="M91.6982,580.7275 Q91.1201,581.0244 90.4795,581.165 Q89.8388,581.3213 89.1357,581.3213 Q86.6357,581.3213 85.3076,579.6806 Q83.9951,578.0244 83.9951,574.8994 Q83.9951,571.7744 85.3076,570.1181 Q86.6357,568.4619 89.1357,568.4619 Q89.8388,568.4619 90.4795,568.6181 Q91.1357,568.7744 91.6982,569.0713 L91.6982,571.79 Q91.0732,571.2119 90.4795,570.9463 Q89.8857,570.665 89.2607,570.665 Q87.917,570.665 87.2295,571.7431 Q86.542,572.8056 86.542,574.8994 Q86.542,576.9931 87.2295,578.0713 Q87.917,579.1338 89.2607,579.1338 Q89.8857,579.1338 90.4795,578.8681 Q91.0732,578.5869 91.6982,578.0088 L91.6982,580.7275 Z " fill="#000000"/><text fill="#000000" font-family="sans-serif" font-size="14" lengthAdjust="spacing" textLength="104.0498" x="109.2295" y="579.9336">Chunk Pipeline</text><line style="stroke:#181818;stroke-width:0.5;" x1="14.77" x2="275.2388" y1="591.0869" y2="591.0869"/><g data-visibility-modifier="PUBLIC_FIELD"><ellipse cx="24.77" cy="604.7353" fill="none" rx="3" ry="3" style="stroke:#038048;stroke-width:1;"/></g><text fill="#000000" font-family="sans-serif" font-size="14" lengthAdjust="spacing" textLength="55.4805" x="33.77" y="608.082">is_fitted</text><line style="stroke:#181818;stroke-width:0.5;" x1="14.77" x2="275.2388" y1="615.3838" y2="615.3838"/><g data-visibility-modifier="PUBLIC_METHOD"><ellipse cx="24.77" cy="629.0322" fill="#84BE84" rx="3" ry="3" style="stroke:#038048;stroke-width:1;"/></g><text fill="#000000" font-family="sans-serif" font-size="14" lengthAdjust="spacing" textLength="236.4688" x="33.77" y="632.3789">predict(input_data, output_mode)</text></g><!--class EnsembleMethod--><g class="entity" data-qualified-name="EnsembleMethod" data-source-line="43" id="ent0006"><rect fill="#F1F1F1" height="113.1875" rx="2.5" ry="2.5" style="stroke:#181818;stroke-width:0.5;" width="153.1602" x="1019.42" y="307.1169"/><ellipse cx="1034.42" cy="323.1169" fill="#EB937F" rx="11" ry="11" style="stroke:#181818;stroke-width:1;"/><path d="M1038.5294,329.1169 L1030.8106,329.1169 L1030.8106,316.7263 L1038.5294,316.7263 L1038.5294,318.8825 L1033.2638,318.8825 L1033.2638,321.5544 L1038.0294,321.5544 L1038.0294,323.7106 L1033.2638,323.7106 L1033.2638,326.9606 L1038.5294,326.9606 L1038.5294,329.1169 Z " fill="#000000"/><text fill="#000000" font-family="sans-serif" font-size="14" lengthAdjust="spacing" textLength="121.1602" x="1048.42" y="327.9636">EnsembleMethod</text><line style="stroke:#181818;stroke-width:0.5;" x1="1020.42" x2="1171.5802" y1="339.1169" y2="339.1169"/><text fill="#000000" font-family="sans-serif" font-size="14" lengthAdjust="spacing" textLength="43.9893" x="1025.42" y="356.112">voting</text><text fill="#000000" font-family="sans-serif" font-size="14" lengthAdjust="spacing" textLength="64.7021" x="1025.42" y="372.4089">weighted</text><text fill="#000000" font-family="sans-serif" font-size="14" lengthAdjust="spacing" textLength="117.8857" x="1025.42" y="388.7057">routed_weighted</text><text fill="#000000" font-family="sans-serif" font-size="14" lengthAdjust="spacing" textLength="112.1572" x="1025.42" y="405.0026">gated_weighted</text><line style="stroke:#181818;stroke-width:0.5;" x1="1020.42" x2="1171.5802" y1="412.3044" y2="412.3044"/></g><g class="entity" data-qualified-name="GMN12" data-source-line="57" id="ent0013"><path d="M645.61,106.3669 L645.61,138.3169 L610.85,142.3169 L645.61,146.3169 L645.61,176.8981 A0,0 0 0 0 645.61,176.8981 L976.382,176.8981 A0,0 0 0 0 976.382,176.8981 L976.382,116.3669 L966.382,106.3669 L645.61,106.3669 A0,0 0 0 0 645.61,106.3669" fill="#FEFFDD" style="stroke:#181818;stroke-width:0.5;"/><path d="M966.382,106.3669 L966.382,116.3669 L976.382,116.3669 L966.382,106.3669" fill="#FEFFDD" style="stroke:#181818;stroke-width:0.5;"/><text fill="#000000" font-family="sans-serif" font-size="13" lengthAdjust="spacing" textLength="75.6895" x="651.61" y="123.4338">finalization:</text><text fill="#000000" font-family="sans-serif" font-size="13" lengthAdjust="spacing" textLength="183.9106" x="651.61" y="138.5666">1. remove unfitted pipelines</text><text fill="#000000" font-family="sans-serif" font-size="13" lengthAdjust="spacing" textLength="309.772" x="651.61" y="153.6994">2. evaluate subsets on common validation data</text><text fill="#000000" font-family="sans-serif" font-size="13" lengthAdjust="spacing" textLength="127.8291" x="651.61" y="168.8322">3. keep best subset</text></g><g class="entity" data-qualified-name="GMN15" data-source-line="64" id="ent0016"><path d="M893.77,488.4569 L893.77,710.3163 A0,0 0 0 0 893.77,710.3163 L1298.2256,710.3163 A0,0 0 0 0 1298.2256,710.3163 L1298.2256,498.4569 L1288.2256,488.4569 L1100,488.4569 L1096,420.7669 L1092,488.4569 L893.77,488.4569 A0,0 0 0 0 893.77,488.4569" fill="#FEFFDD" style="stroke:#181818;stroke-width:0.5;"/><path d="M1288.2256,488.4569 L1288.2256,498.4569 L1298.2256,498.4569 L1288.2256,488.4569" fill="#FEFFDD" style="stroke:#181818;stroke-width:0.5;"/><text fill="#000000" font-family="sans-serif" font-size="13" lengthAdjust="spacing" textLength="45.2271" x="899.77" y="505.5238">voting:</text><text fill="#000000" font-family="sans-serif" font-size="13" lengthAdjust="spacing" textLength="200.7256" x="899.77" y="520.6566">regression = mean predictions</text><text fill="#000000" font-family="sans-serif" font-size="13" lengthAdjust="spacing" textLength="224.5801" x="899.77" y="535.7894">classification = mean probabilities</text><text fill="#000000" font-family="sans-serif" font-size="13" lengthAdjust="spacing" textLength="4.1323" x="899.77" y="550.9222">&#160;</text><text fill="#000000" font-family="sans-serif" font-size="13" lengthAdjust="spacing" textLength="64.4604" x="899.77" y="566.055">weighted:</text><text fill="#000000" font-family="sans-serif" font-size="13" lengthAdjust="spacing" textLength="249.958" x="899.77" y="581.1878">global weights from validation metrics</text><text fill="#000000" font-family="sans-serif" font-size="13" lengthAdjust="spacing" textLength="4.1323" x="899.77" y="596.3206">&#160;</text><text fill="#000000" font-family="sans-serif" font-size="13" lengthAdjust="spacing" textLength="113.8452" x="899.77" y="611.4535">routed_weighted:</text><text fill="#000000" font-family="sans-serif" font-size="13" lengthAdjust="spacing" textLength="383.4556" x="899.77" y="626.5863">per-sample partition weights from Sampling Zoo predictor,</text><text fill="#000000" font-family="sans-serif" font-size="13" lengthAdjust="spacing" textLength="218.7021" x="899.77" y="641.7191">combined with validation weights</text><text fill="#000000" font-family="sans-serif" font-size="13" lengthAdjust="spacing" textLength="4.1323" x="899.77" y="656.8519">&#160;</text><text fill="#000000" font-family="sans-serif" font-size="13" lengthAdjust="spacing" textLength="108.5259" x="899.77" y="671.9847">gated_weighted:</text><text fill="#000000" font-family="sans-serif" font-size="13" lengthAdjust="spacing" textLength="322.1816" x="899.77" y="687.1175">learned per-sample weights from validation data,</text><text fill="#000000" font-family="sans-serif" font-size="13" lengthAdjust="spacing" textLength="242.0869" x="899.77" y="702.2503">routing prior and pipeline predictions</text></g><!--class Sampling Zoo fitted strategy--><g class="entity" data-qualified-name="Sampling Zoo fitted strategy" data-source-line="82" id="ent0020"><rect fill="#F1F1F1" height="48" rx="2.5" ry="2.5" style="stroke:#181818;stroke-width:0.5;" width="233.291" x="326.35" y="575.3869"/><ellipse cx="341.35" cy="591.3869" fill="#ADD1B2" rx="11" ry="11" style="stroke:#181818;stroke-width:1;"/><path d="M344.3188,597.0275 Q343.7406,597.3244 343.1,597.465 Q342.4594,597.6212 341.7563,597.6212 Q339.2563,597.6212 337.9281,595.9806 Q336.6156,594.3244 336.6156,591.1994 Q336.6156,588.0744 337.9281,586.4181 Q339.2563,584.7619 341.7563,584.7619 Q342.4594,584.7619 343.1,584.9181 Q343.7563,585.0744 344.3188,585.3712 L344.3188,588.09 Q343.6938,587.5119 343.1,587.2462 Q342.5063,586.965 341.8813,586.965 Q340.5375,586.965 339.85,588.0431 Q339.1625,589.1056 339.1625,591.1994 Q339.1625,593.2931 339.85,594.3712 Q340.5375,595.4337 341.8813,595.4337 Q342.5063,595.4337 343.1,595.1681 Q343.6938,594.8869 344.3188,594.3087 L344.3188,597.0275 Z " fill="#000000"/><text fill="#000000" font-family="sans-serif" font-size="14" lengthAdjust="spacing" textLength="201.291" x="355.35" y="596.2336">Sampling Zoo fitted strategy</text><line style="stroke:#181818;stroke-width:0.5;" x1="327.35" x2="558.641" y1="607.3869" y2="607.3869"/><line style="stroke:#181818;stroke-width:0.5;" x1="327.35" x2="558.641" y1="615.3869" y2="615.3869"/></g><!--reverse link PipelineEnsemble to PipelineInfo--><g class="link" data-entity-1="ent0001" data-entity-2="ent0002" data-link-type="composition" data-source-line="50" id="lnk7"><path codeLine="50" d="M279.86,251.2769 C279.86,284.9169 279.86,302.3169 279.86,302.3169 C279.86,302.3169 268.28,302.3169 251.92,302.3169" fill="none" id="PipelineEnsemble-backto-PipelineInfo" style="stroke:#181818;stroke-width:1;"/><polygon fill="#181818" points="279.86,239.2769,275.86,245.2769,279.86,251.2769,283.86,245.2769,279.86,239.2769" style="stroke:#181818;stroke-width:1;stroke-linejoin:miter;stroke-miterlimit:10;"/><text fill="#000000" font-family="sans-serif" font-size="13" lengthAdjust="spacing" textLength="8.271" x="259.5958" y="259.0702">1</text><text fill="#000000" font-family="sans-serif" font-size="13" lengthAdjust="spacing" textLength="36.5625" x="242.517" y="305.2137">many</text></g><!--link PipelineEnsemble to PipelineInfo--><g class="link" data-entity-1="ent0001" data-entity-2="ent0002" data-link-type="dependency" data-source-line="80" id="lnk18"><path codeLine="80" d="M283.48,239.2169 C283.48,274.2669 283.48,305.3169 283.48,305.3169 C283.48,305.3169 275.29,305.3169 257.06,305.3169" fill="none" id="PipelineEnsemble-to-PipelineInfo" style="stroke:#181818;stroke-width:1;"/><polygon fill="#181818" points="252.06,305.3169,261.06,309.3169,257.06,305.3169,261.06,301.3169,252.06,305.3169" style="stroke:#181818;stroke-width:1;stroke-linejoin:miter;stroke-miterlimit:10;"/><text fill="#000000" font-family="sans-serif" font-size="13" lengthAdjust="spacing" textLength="132.8882" x="150.48" y="284.0438">requests predictions</text></g><!--link PipelineInfo to ChunkPipeline--><g class="link" data-entity-1="ent0002" data-entity-2="ent0005" data-link-type="dependency" data-source-line="51" id="lnk8"><path codeLine="51" d="M145,428.7369 C145,470.2969 145,517.8969 145,553.6369" fill="none" id="PipelineInfo-to-ChunkPipeline" style="stroke:#181818;stroke-width:1;"/><polygon fill="#181818" points="145,558.6369,149,549.6369,145,553.6369,141,549.6369,145,558.6369" style="stroke:#181818;stroke-width:1;stroke-linejoin:miter;stroke-miterlimit:10;"/></g><!--link PipelineEnsemble to EnsembleMethod--><g class="link" data-entity-1="ent0001" data-entity-2="ent0006" data-link-type="dependency" data-source-line="52" id="lnk9"><path codeLine="52" d="M604.73,239.3569 C604.73,277.0769 604.73,311.3169 604.73,311.3169 C604.73,311.3169 875.71,311.3169 1013.97,311.3169" fill="none" id="PipelineEnsemble-to-EnsembleMethod" style="stroke:#181818;stroke-width:1;"/><polygon fill="#181818" points="1018.97,311.3169,1009.97,307.3169,1013.97,311.3169,1009.97,315.3169,1018.97,311.3169" style="stroke:#181818;stroke-width:1;stroke-linejoin:miter;stroke-miterlimit:10;"/></g><!--link PipelineEnsemble to SamplingRoutingContext--><g class="link" data-entity-1="ent0001" data-entity-2="ent0003" data-link-type="dependency" data-source-line="53" id="lnk10"><path codeLine="53" d="M391.03,239.3669 C391.03,265.5469 391.03,287.7369 391.03,309.9869" fill="none" id="PipelineEnsemble-to-SamplingRoutingContext" style="stroke:#181818;stroke-width:1;"/><polygon fill="#181818" points="391.03,314.9869,395.03,305.9869,391.03,309.9869,387.03,305.9869,391.03,314.9869" style="stroke:#181818;stroke-width:1;stroke-linejoin:miter;stroke-miterlimit:10;"/><text fill="#000000" font-family="sans-serif" font-size="13" lengthAdjust="spacing" textLength="132.6025" x="392.03" y="273.2438">routed/gated modes</text></g><!--link PipelineEnsemble to SamplingRoutingContext--><g class="link" data-entity-1="ent0001" data-entity-2="ent0003" data-link-type="dependency" data-source-line="81" id="lnk19"><path codeLine="81" d="M494.97,239.3669 C494.97,265.5469 494.97,287.7369 494.97,309.9869" fill="none" id="PipelineEnsemble-to-SamplingRoutingContext-1" style="stroke:#181818;stroke-width:1;"/><polygon fill="#181818" points="494.97,314.9869,498.97,305.9869,494.97,309.9869,490.97,305.9869,494.97,314.9869" style="stroke:#181818;stroke-width:1;stroke-linejoin:miter;stroke-miterlimit:10;"/><text fill="#000000" font-family="sans-serif" font-size="13" lengthAdjust="spacing" textLength="136.5952" x="357.97" y="290.2438">base routing weights</text></g><!--link PipelineEnsemble to ConstrainedGatingRouter--><g class="link" data-entity-1="ent0001" data-entity-2="ent0004" data-link-type="dependency" data-source-line="54" id="lnk11"><path codeLine="54" d="M610.96,208.3169 C628.19,208.3169 639.54,208.3169 639.54,208.3169 C639.54,208.3169 639.54,272.2469 639.54,318.2969" fill="none" id="PipelineEnsemble-to-ConstrainedGatingRouter" style="stroke:#181818;stroke-width:1;"/><polygon fill="#181818" points="639.54,323.2969,643.54,314.2969,639.54,318.2969,635.54,314.2969,639.54,323.2969" style="stroke:#181818;stroke-width:1;stroke-linejoin:miter;stroke-miterlimit:10;"/><text fill="#000000" font-family="sans-serif" font-size="13" lengthAdjust="spacing" textLength="104.146" x="534.54" y="264.5838">gated_weighted</text></g><!--link SamplingRoutingContext to Sampling Zoo fitted strategy--><g class="link" data-entity-1="ent0003" data-entity-2="ent0020" data-link-type="dependency" data-source-line="82" id="lnk21"><path codeLine="82" d="M443,412.5469 C443,462.1569 443,531.9769 443,570.1369" fill="none" id="SamplingRoutingContext-to-Sampling Zoo fitted strategy" style="stroke:#181818;stroke-width:1;"/><polygon fill="#181818" points="443,575.1369,447,566.1369,443,570.1369,439,566.1369,443,575.1369" style="stroke:#181818;stroke-width:1;stroke-linejoin:miter;stroke-miterlimit:10;"/><text fill="#000000" font-family="sans-serif" font-size="13" lengthAdjust="spacing" textLength="435.062" x="7" y="489.9038">predict_partition_proba / predict_partitions / transform_embedding</text></g><?plantuml-src bLJDZjCm4BxdAKOz5MYxMhXLWiiA8Gv8YBrnYPncabgRsC5skYm82IvSU9cL-5iGY5V8lX4pJjma_P7WKAMU-MRccrydNO7mN5POI8MFbSKoAN09j--RhystvgRvTVi9cklcinTyRgvlFvBm1fe_Nl3bzaFpazJVwVUR53-Yo5v8LGaZIh1haUfBgNB8H65ne5dfij8AbJjtLnJUuCe9bHT32DDnLnM2DcwjesXL26ltYCBR2E1UPJ2LApSbszh5gN1Y1hfs_2XrYdSOaqab2la6fnlw44HgvP5UQR4W2d62jhKex2vi1YKw8rSCdyTTm1Wx6jF5Oj5gH9uRp8N3s1EMcLorJZeJ-cjxDDUX9comOk0bodpj3e0yiUFgH5YC3QLD1J-EOchfMFrkjxXFLQRRmYfHqYnGGvnaRi1lN_0EkTpQiBIja5r2NxkkQfRL91rMeHVfH2Ioe0XeUpBdegp8SVwYpUXCAuUlNTVlG2XcGjwJppwaDPm3GT4ss09zhvqHocRQb766mjK6X_X1DIYY9IpbbZuHhcE2fcMGIJSDvZEeZDGcHEVdDiaPE65oT3voe1SC1y4cP-jQNMohEG5115WK9Fy-wDB6n8wwpDvHrIM4PNc6j4cfzxJHd17zQJaH681dPpiRNZ8SbjRVtlvDJYTmTpw7IIdKrMGqGj5edkRpH-ECzdqnPCprCER8Q2ox34uyRU22sCCEZhLskPjnfBIZyyGlqDdUzQ4ITMV53_kItgSBkcQbtY3Kgcq3X6NXERs_0AIXhoaCs3gnw2pGbj1sblGPx0ttbl0F5d21M05Vfiw0Ufe2y-hO9TevNJAzdTg5BZCjkYuqS9OzFwIT50h6cpW-LZrck9g3QM6NUK7AeXDPo0oHEB3u-uF5nXMQkUKsuk2wZ5o59iDBhGDPRMRCLPS9jmukfLiFGtRsqTxaSiG2XM6ZGUHZrFrUTRoPWLzl4AflvQXwVJyE3jje2sX6yLLDpRGZ5_ytvdphjkH2qaVGx6WogcKtbRm03dFQsMMW4lTtrNSUJlOrbeJz1IMocARa-Iy0?></g></svg>